<?xml version="1.0" encoding="UTF-8"?>
<svg id="Layer_1" data-name="Layer 1" xmlns="http://www.w3.org/2000/svg" viewBox="0 0 400 400">
  <defs>
    <style>
      .cls-1 {
        fill: #d55000;
      }
    </style>
  </defs>
  <path class="cls-1" d="M7.55,200c0-106.12,86.33-192.45,192.45-192.45,106.12,0,192.45,86.33,192.45,192.45,0,106.12-86.33,192.45-192.45,192.45S7.55,306.12,7.55,200ZM27.55,200c0,95.09,77.36,172.45,172.45,172.45,95.09,0,172.45-77.36,172.45-172.45S295.09,27.55,200,27.55,27.55,104.91,27.55,200Z"/>
  <polygon class="cls-1" points="160.14 322.14 282.28 200 160.14 77.86 131.86 106.14 225.72 200 131.86 293.86 160.14 322.14"/>
</svg>